<svg height="24" viewBox="0 0 200 24" width="200" xmlns="http://www.w3.org/2000/svg"><g fill="#fff" fill-rule="evenodd" transform="translate(0 -7)"><path d="m17.136 18.376h-1.68c-.84 0-1.704.144-1.92.384-.144-.528-.552-1.776-.84-2.472.432-.12.744-.72 1.104-1.56.144-.336.408-1.08.696-2.016h-1.92v-2.496h2.544c.192-.864.36-1.752.48-2.64l2.832.504c-.168.72-.336 1.416-.552 2.136h4.968v2.496h-5.784c-.432 1.176-.912 2.328-1.344 3.336h1.416v-2.52h2.664v2.52h2.64v2.328h-2.64v2.256h3.288v2.496h-3.288v3.216h-2.664v-3.216h-4.44v-2.496h4.44zm-5.136-5.352-2.472.792c-.24-1.32-.84-3.36-1.392-4.872l2.352-.696c.576 1.512 1.224 3.456 1.512 4.776zm-6.144 12.12 1.752-1.296c.168.696.528 1.704.816 2.184-3.792 2.808-4.464 3.408-4.848 3.912l-.024-.144c-.024.048-.024.096-.024.144-.24-.504-.936-1.464-1.368-1.824.504-.408 1.2-1.296 1.2-2.568v-3.768h-2.136v-2.424h2.136v-2.496h-1.104v-1.632c-.12.216-.288.408-.432.552-.192-.576-.864-1.968-1.272-2.568 1.104-1.368 1.944-3.408 2.472-5.472l2.352.672c-.144.528-.312 1.056-.504 1.608h3.168v2.448h-4.128c-.36.72-.72 1.368-1.128 1.992h4.68v2.4h-1.608v2.496h2.28v2.424h-2.28zm6.168-9.696v9.792c.408.216.84.552 1.416.888 1.2.72 2.688.936 4.536.936 1.44 0 3.888-.144 5.448-.36-.24.744-.6 2.136-.624 2.856-1.2.096-3.36.168-4.848.168-2.064 0-3.504-.36-4.8-1.152-.84-.504-1.56-1.104-2.016-1.104-.576 0-1.512 1.416-2.208 2.616l-1.752-2.664c.72-.768 1.512-1.44 2.28-1.872v-7.536h-1.392v-2.568zm13.656 14.616v-16.632h2.904v16.632zm.432-20.856 2.064-1.416c1.128.984 2.472 2.376 3.096 3.384l-2.232 1.584c-.552-.984-1.848-2.52-2.928-3.552zm7.536 12.72v1.608c1.416-.096 2.952-.192 4.512-.312v-1.296zm4.512-6.624h-4.512v1.272h4.512zm-4.512 3.264v1.368h4.512v-1.368zm8.904 6.528-1.848.168v2.712h-2.544v-2.52c-3.192.264-6.24.48-8.616.672l-.24-2.328c.552-.024 1.152-.072 1.8-.096v-8.4h-1.296v-2.184h12.24v2.184h-1.344v7.728l1.824-.12zm3.864-16.536v18.456c0 1.368-.24 2.04-1.056 2.496-.792.432-1.968.504-3.6.504-.096-.72-.456-1.896-.792-2.592.888.048 1.872.048 2.184.048.336-.024.432-.12.432-.456v-15.912h-11.328v-2.544z"/><path d="m65.188 23.476c.0960005 0 .1919995.0179998.288.054s.1879996.0979996.276.186l1.608 1.692c-.7040035.9200046-1.5859947 1.6139977-2.646 2.082s-2.3139928.702-3.762.702c-1.3280066 0-2.5179947-.2259977-3.57-.678s-1.9439963-1.075996-2.676-1.872-1.293998-1.7399945-1.686-2.832-.588-2.2779936-.588-3.558c0-1.3040065.2239978-2.5019945.672-3.594s1.073996-2.033996 1.878-2.826 1.7659944-1.4079978 2.886-1.848 2.3559932-.66 3.708-.66c.6560033 0 1.2739971.0579994 1.854.174s1.1219975.275999 1.626.48.9679979.4479986 1.392.732.7999984.5979983 1.128.942l-1.368 1.836c-.0880004.1120006-.1919994.2139995-.312.306s-.2879989.138-.504.138c-.1440007 0-.2799994-.0319997-.408-.096s-.2639993-.1419995-.408-.234-.3019991-.1919995-.474-.3-.3759988-.2079995-.612-.3-.5119984-.1699997-.828-.234-.6859979-.096-1.11-.096c-.7360037 0-1.407997.1299987-2.016.39s-1.1299978.6319976-1.566 1.116-.7759988 1.0699966-1.02 1.758-.366 1.4599957-.366 2.316c0 .8960045.1219988 1.6919965.366 2.388s.5759979 1.2819976.996 1.758.9099972.8379988 1.47 1.086 1.1599968.372 1.8.372c.3680018 0 .7039985-.0179998 1.008-.054s.5859987-.0979996.846-.186.5079988-.2019993.744-.342.4739988-.313999.714-.522c.0960005-.0800004.1999994-.1459997.312-.198s.2279994-.078.348-.078zm19.284 4.524h-4.08v-7.392h-7.104v7.392h-4.08v-17.484h4.08v7.308h7.104v-7.308h4.08zm19.152 0h-3.144c-.352002 0-.6419989-.0819992-.87-.246s-.3859996-.3739987-.474-.63l-1.032-3.048h-6.648l-1.032 3.048c-.0800004.2240011-.2359988.4259991-.468.606s-.5159983.27-.852.27h-3.168l6.768-17.484h4.152zm-11.232-6.684h4.776l-1.608-4.788c-.1040005-.3040015-.2259993-.6619979-.366-1.074s-.2779993-.8579976-.414-1.338c-.1280006.4880024-.2599993.9399979-.396 1.356s-.2639994.7759985-.384 1.08zm17.088 6.684h-4.08v-17.484h4.08zm5.376-17.484c.176001 0 .323999.0079999.444.024s.228.0459998.324.09.188.1059996.276.186.187999.1879993.3.324l8.304 10.5c-.032-.3360017-.056-.6619984-.072-.978s-.024-.6139986-.024-.894v-9.252h3.576v17.484h-2.112c-.312002 0-.575999-.0479995-.792-.144s-.423999-.2719987-.624-.528l-8.244-10.416c.024.3040015.044.6019985.06.894s.024.5659987.024.822v9.372h-3.576v-17.484z"/><path d="m133.16 10.516c.176001 0 .323999.0079999.444.024s.228.0459998.324.09.188.1059996.276.186.187999.1879993.3.324l8.304 10.5c-.032-.3360017-.056-.6619984-.072-.978s-.024-.6139986-.024-.894v-9.252h3.576v17.484h-2.112c-.312002 0-.575999-.0479995-.792-.144s-.423999-.2719987-.624-.528l-8.244-10.416c.024.3040015.044.6019985.06.894s.024.5659987.024.822v9.372h-3.576v-17.484zm27.264 0v3.12h-7.176v4.08h5.496v3h-5.496v4.164h7.176v3.12h-11.256v-17.484zm.984 0h3.408c.352002 0 .645999.0799992.882.24s.39.3719987.462.636l2.4 9.12c.08.2960015.16.6119983.24.948s.14.6879982.18 1.056c.08-.3760019.168-.7299983.264-1.062s.188-.6459985.276-.942l2.832-9.12c.072-.2240011.225999-.4259991.462-.606s.521998-.27.858-.27h1.2c.352002 0 .641999.0779992.87.234s.386.3699986.474.642l2.808 9.12c.088.2800014.18.5779984.276.894s.18.6539982.252 1.014c.064-.3520018.13-.6879984.198-1.008s.138-.6199986.21-.9l2.4-9.12c.064-.2320012.215999-.4359991.456-.612s.527998-.264.864-.264h3.192l-5.4 17.484h-3.672l-3.288-10.836c-.056-.1680008-.114-.351999-.174-.552s-.118-.4119989-.174-.636c-.056.2240011-.114.435999-.174.636s-.118.3839992-.174.552l-3.336 10.836h-3.672zm36.768 3.552c-.120001.192001-.245999.3359995-.378.432s-.301999.144-.51.144c-.184001 0-.381999-.0579994-.594-.174s-.451999-.2459993-.72-.39-.573998-.2739994-.918-.39-.735998-.174-1.176-.174c-.760004 0-1.325998.1619984-1.698.486s-.558.7619972-.558 1.314c0 .3520018.111999.6439988.336.876s.517998.4319992.882.6.779998.3219993 1.248.462.945998.2959991 1.434.468.965998.3739988 1.434.606.883998.5279982 1.248.888.657999.7979974.882 1.314.336 1.1379964.336 1.866c0 .808004-.139999 1.5639965-.42 2.268s-.685997 1.3179974-1.218 1.842-1.187996.9359985-1.968 1.236-1.665995.45-2.658.45c-.544003 0-1.097997-.0559994-1.662-.168s-1.109997-.269999-1.638-.474-1.023998-.4459986-1.488-.726-.867998-.5919983-1.212-.936l1.2-1.896c.088-.1440007.211999-.2599996.372-.348s.331999-.132.516-.132c.240001 0 .481999.0759992.726.228s.519998.3199991.828.504.661998.3519992 1.062.504.871997.228 1.416.228c.736004 0 1.307998-.1619984 1.716-.486s.612-.8379965.612-1.542c0-.408002-.111999-.7399987-.336-.996s-.517998-.4679992-.882-.636-.777998-.3159994-1.242-.444-.939998-.2699992-1.428-.426-.963998-.3479989-1.428-.576-.877998-.5279981-1.242-.9-.657999-.8359972-.882-1.392-.336-1.2419959-.336-2.058c0-.6560033.131999-1.2959969.396-1.92s.651997-1.1799976 1.164-1.668 1.139996-.8779985 1.884-1.17 1.595995-.438 2.556-.438c.536003 0 1.057997.0419996 1.566.126s.989998.2079992 1.446.372.881998.3599989 1.278.588.749998.4859986 1.062.774z" opacity=".75"/></g></svg>